<svg width="300" height="300" xmlns="http://www.w3.org/2000/svg">
 <g id="Layer_1">
  <title>Layer 1</title>
  <g id="svg_29">
   <path transform="rotate(22 213.486 194.564)" fill="#bf5f00" stroke="#000" d="m254.32065,192.75071c-3.98066,-0.74632 -8.12373,-1.23771 -11.48791,-1.37072l-0.59329,-0.02217c0.13589,-0.33252 0.23864,-0.55789 0.27179,-0.59115c0.07292,-0.0665 0.13258,-0.3473 0.13921,-0.6207c0,-0.15148 0.05966,-0.64287 0.15246,-1.29313c0.91148,0.03695 2.12125,0.0665 3.44041,0.07759c5.09432,0.04434 10.42397,0.50247 14.07981,1.22293c2.1776,0.42858 2.89683,0.4138 1.28932,-0.02217c-1.6274,-0.43967 -6.45325,-1.08623 -10.29802,-1.36703c-2.58196,-0.19582 -6.28421,-0.26971 -8.46512,-0.22907c0.06297,-0.42119 0.13589,-0.89041 0.21213,-1.37072c0.30824,-1.85842 0.41099,-3.72792 0.41762,-7.44844c0.00663,-5.77107 -0.27179,-7.35977 -1.95884,-11.17636c-0.68609,-1.55915 -1.46168,-2.88184 -2.39967,-4.07891c0.81867,-2.69341 0.79878,-6.86469 -0.04972,-10.5224c-0.69935,-3.00007 -0.94462,-3.19219 -3.38406,-2.61582c-2.06822,0.49139 -3.72545,1.16012 -5.85002,2.3535c-1.00428,0.56528 -2.38972,1.44461 -3.394,2.13552c-2.61842,-1.02712 -5.32633,-1.70693 -8.21654,-2.07271c-2.92998,-0.36947 -10.11241,-0.16257 -12.66122,0.36208c-2.49247,0.51356 -4.73636,1.14165 -6.76812,1.88797c-1.01422,-0.69829 -2.48584,-1.64043 -3.53652,-2.23158c-2.13451,-1.19707 -3.79174,-1.86211 -5.86659,-2.3535c-2.43281,-0.58006 -2.68471,-0.38425 -3.38075,2.61582c-0.86176,3.70575 -0.86839,7.94722 -0.01657,10.63324c0.09943,0.30666 0.15909,0.52464 0.1823,0.6946c-3.45366,4.8474 -4.58058,10.27117 -3.83151,17.84153c0.19555,1.97295 0.49717,3.78334 0.9181,5.44224c-2.20411,-0.01478 -5.33959,0.07389 -7.60336,0.23646c-3.8514,0.28449 -8.67725,0.92367 -10.30464,1.36333c-1.6042,0.43597 -0.89159,0.45075 1.28932,0.02586c3.65585,-0.71676 8.98881,-1.18229 14.07981,-1.22293c0.96119,-0.00369 1.85941,-0.02586 2.63168,-0.04803c0.23201,0.87564 0.49717,1.71063 0.79878,2.50498l-0.0232,0.00369c-3.36417,0.12931 -7.50393,0.6207 -11.48459,1.36703c-2.98633,0.55789 -7.39455,1.67368 -7.90829,1.99512c-0.54026,0.33621 -0.09943,0.26232 2.21406,-0.39163c4.2193,-1.18968 9.70473,-2.10226 16.49936,-2.73775l0.75901,-0.07389c1.45836,3.77595 3.70556,6.65778 6.88081,8.90414c1.94227,1.37811 5.05455,2.79317 6.62228,3.01485c0.43088,0.05911 1.68374,0.3473 2.78414,0.63548c1.10371,0.28818 3.26143,0.72046 4.7927,0.968l0.03646,0c-0.02983,0.02217 -0.05635,0.03695 -0.08286,0.05911c-1.8561,1.07515 -3.06256,2.74883 -3.8746,5.38313c-0.36459,0.12192 -0.81867,0.28818 -1.30921,0.47661c-1.75335,0.66504 -2.43613,0.80174 -4.21267,0.81652c-1.84284,0.01478 -2.28035,-0.07389 -3.38075,-0.65026c-1.60088,-0.8313 -3.09239,-2.36089 -4.08672,-4.18605c-1.66054,-3.05179 -4.53086,-5.20948 -6.9239,-5.20948c-2.04502,0 -2.43281,0.92367 -0.95456,2.27222c2.22731,2.02837 3.89117,4.09738 4.57395,5.6787c0.38448,0.88672 0.97445,2.25744 1.31584,3.0444c0.36128,0.83869 1.13354,1.97665 1.86935,2.76361c1.73015,1.83994 3.40063,2.71927 5.8931,3.13308c1.67049,0.27341 2.08148,0.27341 4.05358,-0.00739c0.95125,-0.12931 1.75335,-0.28079 2.47258,-0.46922c0,0.9015 0,1.9397 0,3.15894c0,6.52478 -0.0696,8.62335 -0.30162,9.23666c-0.43751,1.16751 -1.41859,2.36828 -2.37315,2.9077c-0.95125,0.53942 -1.24624,1.13426 -0.84519,1.68107c0.22207,0.29557 0.64963,0.3473 2.08479,0.24385c2.72448,-0.18843 4.65018,-1.31161 5.63126,-3.29195c0.31487,-0.63548 0.38779,-1.91384 0.48723,-8.56423c0.10606,-7.21568 0.15246,-7.91028 0.5734,-8.94109c0.25521,-0.61331 0.62312,-1.27835 0.82861,-1.45939c0.3447,-0.31774 0.3679,0.31035 0.3679,8.94109c-0.00331,9.52484 -0.08949,10.67388 -0.94462,12.50644c-0.19224,0.4175 -0.55683,0.96061 -0.81204,1.21924c-0.44745,0.45444 -0.63638,1.61826 -0.32482,1.96926c0.51374,0.56898 3.08907,-0.32513 4.4944,-1.55915c2.39304,-2.11335 2.67808,-3.86092 2.69797,-16.4819l0.00994,-7.40411l0.72587,0.07759l0.72587,0.07389l0.11932,9.68371c0.13589,10.90295 0.15578,11.06182 1.81964,13.16778c0.94462,1.18968 1.89587,1.84733 3.44372,2.36089c2.07154,0.6946 2.69465,-0.37686 1.30258,-2.23527c-1.51471,-2.02098 -1.58762,-2.79317 -1.50476,-14.75649c0.05635,-7.67012 0.05635,-7.67012 0.50048,-7.22307c0.93468,0.94583 1.11366,2.49759 1.11366,9.6911c0,8.9337 0.2287,9.78347 3.05924,11.34262c1.32247,0.72046 1.69369,0.80913 3.38737,0.81652c1.80306,0.00739 1.91244,-0.02217 1.97873,-0.54681c0.05635,-0.42489 -0.16572,-0.71307 -1.00759,-1.28574c-1.10371,-0.75741 -1.86935,-1.72541 -2.34995,-2.94465c-0.1823,-0.46922 -0.30493,-3.54318 -0.38779,-9.87214c-0.11932,-8.84133 -0.14584,-9.24405 -0.63969,-10.62955c-0.66621,-1.86211 -1.68374,-3.33259 -2.97307,-4.30798c-0.33476,-0.24385 -0.66952,-0.44705 -1.10371,-0.59854c0.53363,-0.05911 1.05068,-0.12192 1.55117,-0.20321c5.21033,-0.77218 7.96464,-1.41506 10.17538,-2.36828c4.6767,-2.0062 7.83869,-5.33879 9.55226,-10.06426c0.15246,-0.42119 0.30493,-0.82022 0.43419,-1.14165l1.31915,0.12192c6.79795,0.63918 12.28338,1.55176 16.50268,2.74514c2.31349,0.65396 2.75431,0.73154 2.21406,0.38794c-0.5038,-0.31405 -4.91202,-1.42614 -7.89503,-1.98403l0.00002,0.00001zm-19.93314,-0.11453c-0.77227,1.89167 -2.92666,4.32276 -4.66675,5.27598c-1.71689,0.94583 -4.40823,1.66629 -7.45753,2.0099c-2.08479,0.23646 -13.71191,0.30666 -15.63098,0.09606c-6.35381,-0.6946 -9.91354,-2.05793 -12.53859,-4.78828c-2.48584,-2.59365 -3.6459,-6.11467 -3.44372,-10.44851c0.12926,-2.71188 0.71592,-4.41512 2.25052,-6.48414c1.39539,-1.88428 2.86369,-3.0481 4.59384,-3.63924c1.44842,-0.49508 5.8931,-0.53942 11.86907,-0.11084c2.64162,0.18843 4.82585,0.18843 7.46416,0c6.25106,-0.43967 10.42397,-0.39163 11.96519,0.1404c2.42287,0.83499 4.6303,3.08135 5.95608,6.07403c0.5966,1.33747 0.71261,1.90645 0.79878,3.97176c0.11932,2.84489 -0.3215,5.86713 -1.16006,7.90289l-0.00001,-0.00001zm-31.52048,-12.21456c-3.55641,-0.6946 -5.58817,6.0925 -2.86038,9.5581c1.29595,1.64413 2.44607,1.91384 3.88454,0.91628c1.33241,-0.92736 2.05496,-2.66016 2.05496,-4.90651c0,-2.99637 -1.22303,-5.19839 -3.07913,-5.56786l0.00001,-0.00001zm21.58705,0.40641c-3.55641,-0.6946 -5.59149,6.08511 -2.86369,9.5544c1.29927,1.64413 2.44607,1.91753 3.88786,0.91258c1.3291,-0.92367 2.05496,-2.66016 2.05496,-4.90651c0,-2.98529 -1.22303,-5.1947 -3.07913,-5.56047zm-9.56552,13.34513c-0.07623,0.27341 -0.44745,0.67982 -0.82199,0.8978c-0.94793,0.54312 -1.63071,0.35469 -2.63168,-0.66134c-0.6198,-0.6244 -0.90153,-0.95322 -1.09046,-0.29927c-0.17567,0.60592 0.92805,1.82147 1.77986,2.19463c0.78221,0.3473 1.34235,0.35838 2.19086,-0.03695c0.84187,-0.39163 1.57768,-1.44461 1.57768,-2.12813c0,-0.63548 -0.81867,-0.60592 -1.00428,0.03325l0.00001,0.00001zm-1.05068,-2.12443c0.54026,-0.53203 0.66289,-1.62565 0.14584,-2.20571s-1.56774,-0.49139 -1.97873,0.15887c-0.47728,0.7611 -0.22207,1.34116 0.11932,1.95817c0.53031,0.45814 1.24292,0.5505 1.71357,0.08867z" id="svg_1" stroke-width="0"/>
   <g transform="rotate(22 150.134 144.37)" id="svg_23" stroke-width="0">
    <path fill="#7f3f00" stroke="#000" stroke-width="0" opacity="undefined" d="m103.62852,74.36999l93,0l0,140l-93,0l0,-140z" id="svg_2"/>
    <path fill="#ffffff" d="m102.63351,102.49694l93.00002,0l0,1l-93.00002,0l0,-1z" id="svg_18" stroke-width="0" stroke="#000"/>
    <path fill="#ffffff" d="m103.63351,132.49694l93.00003,0l0,1l-93.00003,0l0,-1z" id="svg_19" stroke-width="0" stroke="#000"/>
    <path fill="#ffffff" d="m102.63351,162.49694l93.00003,0l0,1l-93.00003,0l0,-1z" id="svg_20" stroke-width="0" stroke="#000"/>
    <path fill="#ffffff" d="m104.63351,189.49694l93.00003,0l0,1l-93.00003,0l0,-1z" id="svg_21" stroke-width="0" stroke="#000"/>
    <path fill="#ffffff" d="m148.63352,76.4966l1,0l0,137l-1,0l0,-137z" id="svg_22" stroke-width="0" stroke="#000"/>
   </g>
   <path fill="#ff0000" stroke="#000" d="m123.97054,80.10757c-0.98768,1.80895 -1.67922,2.75848 -5.03904,3.70681c-0.59371,0.25846 0.19701,0.86185 0.59371,0.77532c2.96312,-1.03375 3.65464,-1.89672 5.03904,-3.79338c0.69153,2.41472 2.27159,3.96643 4.93988,4.91476l0.19834,-0.51804c3.65599,1.7248 6.42211,2.06981 8.79288,1.63829c2.27292,-0.43149 4.93988,-0.77529 7.11498,-0.51682c-1.38307,-0.94842 -2.1751,-2.0698 -2.46995,-3.44845c2.27161,-2.06973 6.71829,-1.29329 8.89206,-2.5001l-0.49453,-0.94952c4.74287,-1.37867 8.79421,-3.62033 14.42562,-2.93038l-9.2874,-5.86314l0.19701,-0.77649c-2.76612,-1.81013 -5.92758,-2.24166 -9.48573,-1.0337c1.18604,-3.01811 0,-6.29352 3.26196,-8.62162c-0.79069,-1.29333 0,-3.10348 1.38307,-4.74176c0.19836,-3.10346 1.18471,-5.86257 2.96312,-8.36269c-2.86528,1.63829 -5.72924,3.10346 -8.6937,4.39738l-0.49453,-0.94892c-1.18471,1.63883 -2.8653,2.84562 -5.13822,3.53438l-0.39535,-0.94833c-3.06364,2.67315 -6.71829,4.05181 -8.99124,7.93287c0.69153,-3.79453 -0.59369,-7.50138 -2.37208,-10.51891l-0.69153,0.60396c-1.28389,-3.70742 -5.82842,-6.12157 -8.6937,-9.13909c1.18471,8.27666 -2.27428,9.31099 -2.17378,13.88085l-1.18738,0.08533c1.68057,4.65638 -0.59237,6.81151 0.49453,10.00152c-2.76612,-1.20681 -6.32428,-0.34499 -8.69505,-2.24168c2.86528,3.96648 3.85433,8.79357 8.69505,12.07009l-0.69153,0.25846c1.7784,1.72362 4.05134,3.19001 8.0035,4.05301l-0.00001,-0.00001z" id="svg_25"/>
   <path transform="rotate(-115 104.644 81.39)" fill="#ff7f00" stroke="#000" d="m91.87449,95.95712c-0.97065,1.68835 -1.65026,2.57458 -4.95216,3.45969c-0.58347,0.24123 0.19361,0.80439 0.58347,0.72363c2.91204,-0.96483 3.59163,-1.77027 4.95216,-3.54049c0.67961,2.25374 2.23242,3.702 4.85471,4.58711l0.19492,-0.4835c3.59296,1.60981 6.31138,1.93183 8.64128,1.52907c2.23374,-0.40273 4.85471,-0.7236 6.9923,-0.48237c-1.35922,-0.88519 -2.1376,-1.93181 -2.42736,-3.21856c2.23244,-1.93175 6.60246,-1.20707 8.73875,-2.33343l-0.486,-0.88622c4.6611,-1.28676 8.64259,-3.37898 14.17691,-2.73502l-9.12728,-5.47226l0.19361,-0.72472c-2.71843,-1.68946 -5.82538,-2.09221 -9.32218,-0.96478c1.16559,-2.8169 0,-5.87395 3.20572,-8.04685c-0.77706,-1.2071 0,-2.89658 1.35922,-4.42564c0.19494,-2.89656 1.16428,-5.47173 2.91204,-7.80517c-2.81588,1.52907 -5.63046,2.89656 -8.54381,4.10422l-0.486,-0.88566c-1.16428,1.52957 -2.8159,2.65591 -5.04963,3.29875l-0.38853,-0.88511c-3.01082,2.49494 -6.60246,3.78169 -8.83622,7.40401c0.67961,-3.54156 -0.58345,-7.00128 -2.33119,-9.81765l-0.67961,0.5637c-1.26175,-3.46026 -5.72793,-5.71346 -8.54381,-8.52982c1.16428,7.72488 -2.23507,8.69025 -2.1363,12.95546l-1.1669,0.07964c1.65159,4.34595 -0.58216,6.35741 0.486,9.33475c-2.71843,-1.12636 -6.21524,-0.32199 -8.54514,-2.09223c2.81588,3.70204 3.78788,8.20733 8.54514,11.26542l-0.67961,0.24123c1.74773,1.60871 3.98149,2.97734 7.86551,3.78281l-0.00001,-0.00001z" id="svg_26"/>
   <path transform="rotate(111 128.887 187.247)" fill="#ffff7a" d="m115.95853,285.4275c-9.12075,-1.32512 -12.97854,-14.37592 -11.11413,-24.14512c3.20751,-15.43207 15.75582,-26.09663 28.34532,-27.83046c4.77665,-0.4813 10.0433,-0.39975 13.97733,3.27475c3.2286,-1.56519 0.95706,-7.7381 1.54634,-11.43794c0,-45.53235 0,-91.06473 0,-136.59708c8.11921,-1.44374 2.87643,12.58919 4.30849,18.33676c-0.0538,50.2595 0.33683,100.52405 -0.41204,150.77877c-3.95922,18.78229 -21.35489,30.68157 -36.6513,27.62031l-0.00001,0.00001zm1.5424,-8.21016c12.46027,-4.83638 24.05616,-14.92991 29.98427,-29.43961c0.51793,-8.96967 -8.67656,-7.10382 -12.83263,-4.07527c-7.31974,4.47683 -14.20898,10.35755 -19.91736,17.54277c-3.79061,4.25189 -8.61552,17.32107 0.42662,16.57959l1.24906,-0.21519l1.09003,-0.3923l0,0l0.00001,0.00001z" id="svg_28" stroke="#000"/>
  </g>
 </g>

</svg>